# xmcd
# 
# Track frame offsets:
#     150
#     21841
#     41163
#     55283
#     74833
#     86342
#     101448
#     123802
#     147261
#     159261
#     167627
#     183518
# 
# Disc length: 2756
# 
# Revision: 0
# Processed by: cddbd v1.5.2PL0 Copyright (c) Steve Scherf et al.
# Submitted via: fre:ac v1.0.27
# 
DISCID=9f0ac20c
DTITLE=Los alvarados - Between Nightmares
DYEAR=2006
DGENRE=Rock and Roll
TTITLE0=Hollywood
TTITLE1=Licence To Chill
TTITLE2=Too Late For Tears
TTITLE3=This Heart
TTITLE4=Sauced Up And Surly
TTITLE5=Your Ex-Wife
TTITLE6=Lovin Time To Kill
TTITLE7=Between Nightmares
TTITLE8=Two-Buck Chuck
TTITLE9=Satisfied Mind
TTITLE10=Lonsome Old Town
TTITLE11=Tijuana
EXTD=
EXTT0=
EXTT1=
EXTT2=
EXTT3=
EXTT4=
EXTT5=
EXTT6=
EXTT7=
EXTT8=
EXTT9=
EXTT10=
EXTT11=
PLAYORDER=
